# xmcd CD database file
#
# Track frame offsets:
#	150
#	20757
#	35207
#	59581
#	73251
#	90446
#	113195
#	125793
#	144064
#	161211
#	185775
#	207472
#	226118
#	238815
#	255041
#	277014
#
# Disc length: 3888 seconds
#
# Revision: 1
# Processed by: cddbd v1.5.1PL2 Copyright (c) Steve Scherf et al.
# Submitted via: CDex 1.51
#
DISCID=f30f2e10
DTITLE=KVRX - Local Live Volume 10
DYEAR=2006
DGENRE=Rock
TTITLE0=Peelander-Z - S.T.E.A.K.
TTITLE1=The Arm - Malaria! Malaria!
TTITLE2=The Black Angels - Empire
TTITLE3=The Theater Fire - Woohoo
TTITLE4=Astronautalis - Seaweed Sheets
TTITLE5=Montag - Scrabble Heart
TTITLE6=Castanets - Three Days, Four Nights
TTITLE7=Smog - Bloodflow
TTITLE8=Crooked Fingers - You Can Never Leave
TTITLE9=Ethan Azarian - The World is Upside Down
TTITLE10=Dosh - I Call The Kettle Back
TTITLE11=Mission Giant - Life
TTITLE12=The Ugly Beats - Get Up
TTITLE13=The Shim Shams - The Shim Sham Song
TTITLE14=Bavu Blakes - Nobody Leavin'
TTITLE15=Attic Ted - Bob Long
EXTD=YEAR: 2006
EXTT0=
EXTT1=
EXTT2=
EXTT3=
EXTT4=
EXTT5=
EXTT6=
EXTT7=
EXTT8=
EXTT9=
EXTT10=
EXTT11=
EXTT12=
EXTT13=
EXTT14=
EXTT15=
PLAYORDER=
